<?xml version="1.0" encoding="utf-8"?>
<svg version="1.1" xmlns:xlink="http://www.w3.org/1999/xlink" width="65px" height="50px" xmlns="http://www.w3.org/2000/svg">
  <g transform="matrix(1 0 0 1 -531 -1960 )">
    <path d="M 63.3661684782609 22.1116816431322  C 64.4553894927536 22.8605049208387  65 23.8232777064613  65 25  C 65 26.1553273427471  64.4553894927536 27.1287976037655  63.3661684782609 27.9204107830552  L 34.6195652173913 48.8125802310655  C 33.4714673913044 49.6041934103552  32.1320199275362 50  30.601222826087 50  C 29.0998641304348 50  27.7751358695652 49.6041934103552  26.6270380434783 48.8125802310655  L 23.3152173913043 46.405648267009  C 22.1965579710145 45.5926401369277  21.6372282608696 44.6191698759093  21.6372282608696 43.4852374839538  C 21.6372282608696 42.3513050919983  22.1965579710145 41.3778348309799  23.3152173913043 40.5648267008986  L 36.2533967391304 31  L 5.1664402173913 31  C 3.63564311594203 31.1617458279846  2.39187047101449 30.7605905006419  1.4351222826087 29.9582798459564  C 0.478374094202899 29.1559691912709  0 28.1878476679504  0 27.0539152759949  L 0 22.9460847240051  C 0 21.8121523320496  0.478374094202899 20.8440308087291  1.4351222826087 20.0417201540436  C 2.39187047101449 19.2394094993582  3.63564311594203 18.8382541720154  5.1664402173913 19  L 36.2533967391304 19  L 23.3152173913043 9.40308087291399  C 22.1965579710145 8.63286264441592  21.6372282608696 7.67008985879333  21.6372282608696 6.51476251604621  C 21.6372282608696 5.3594351732991  22.1965579710145 4.39666238767651  23.3152173913043 3.62644415917843  L 26.6270380434783 1.21951219512195  C 27.7456974637681 0.406504065040647  29.0704257246377 0  30.601222826087 0  C 32.1614583333333 0  33.5009057971015 0.406504065040647  34.6195652173913 1.21951219512195  L 63.3661684782609 22.1116816431322  Z " fill-rule="nonzero" fill="#32a8ff" stroke="none" transform="matrix(1 0 0 1 531 1960 )" />
  </g>
</svg>